<svg width="35" height="28" fill="none" xmlns="http://www.w3.org/2000/svg"><path d="M34.145 3.62a13.688 13.688 0 0 1-3.931 1.056A6.809 6.809 0 0 0 33.216.914a13.475 13.475 0 0 1-4.33 1.649A6.81 6.81 0 0 0 23.897.405a6.823 6.823 0 0 0-6.825 6.829c0 .528.064 1.056.168 1.565A19.396 19.396 0 0 1 3.168 1.654 6.777 6.777 0 0 0 2.24 5.1a6.83 6.83 0 0 0 3.042 5.688 6.884 6.884 0 0 1-3.086-.869v.085a6.827 6.827 0 0 0 5.471 6.7c-.587.152-1.19.23-1.797.232-.444 0-.864-.044-1.289-.104a6.837 6.837 0 0 0 6.38 4.735 13.679 13.679 0 0 1-8.473 2.918c-.572 0-1.1-.02-1.65-.084a19.327 19.327 0 0 0 10.484 3.062c12.552 0 19.42-10.399 19.42-19.425 0-.296 0-.592-.02-.888a14.701 14.701 0 0 0 3.422-3.53Z" fill="#11B5E4"/></svg>