<svg width="33" height="33" fill="none" xmlns="http://www.w3.org/2000/svg"><path d="M31.199.924H1.739a1.28 1.28 0 0 0-1.28 1.28v29.46c0 .708.572 1.28 1.28 1.28H31.2a1.28 1.28 0 0 0 1.28-1.28V2.203A1.28 1.28 0 0 0 31.2.924ZM9.957 28.209h-4.75V12.927h4.75V28.21ZM7.584 10.838a2.754 2.754 0 1 1 0-5.507 2.754 2.754 0 0 1 0 5.507Zm20.16 17.371h-4.746v-7.433c0-1.773-.032-4.05-2.47-4.05-2.47 0-2.85 1.93-2.85 3.922v7.561h-4.743V12.927h4.555v2.09h.064c.633-1.201 2.181-2.47 4.495-2.47 4.811 0 5.696 3.166 5.696 7.28v8.382Z" fill="#025279"/></svg>